<svg width="31" height="27" viewBox="0 0 31 27" fill="none" xmlns="http://www.w3.org/2000/svg">
<path d="M4.45312 4.19922C7.38281 1.81641 10.918 0.625 15.0586 0.625C19.1992 0.625 22.7344 1.81641 25.6641 4.19922C28.5938 6.58203 30.0586 9.45312 30.0586 12.8125C30.0586 16.1719 28.5938 19.043 25.6641 21.4258C22.7344 23.8086 19.1992 25 15.0586 25C13.2227 25 11.4062 24.7266 9.60938 24.1797C7.07031 25.9766 4.35547 26.875 1.46484 26.875C0.839844 26.875 0.410156 26.582 0.175781 25.9961C-0.0585938 25.4492 0.0195313 24.9609 0.410156 24.5312C0.488281 24.4531 0.664062 24.2578 0.9375 23.9453C1.25 23.5938 1.62109 23.0664 2.05078 22.3633C2.51953 21.6211 2.89062 20.8984 3.16406 20.1953C1.09375 18.0078 0.0585938 15.5469 0.0585938 12.8125C0.0585938 9.45312 1.52344 6.58203 4.45312 4.19922ZM15.0586 22.1875C18.418 22.1875 21.2891 21.2695 23.6719 19.4336C26.0547 17.5977 27.2461 15.3906 27.2461 12.8125C27.2461 10.2344 26.0547 8.02734 23.6719 6.19141C21.2891 4.35547 18.418 3.4375 15.0586 3.4375C11.6992 3.4375 8.82812 4.35547 6.44531 6.19141C4.0625 8.02734 2.87109 10.2344 2.87109 12.8125C2.87109 14.8047 3.65234 16.6211 5.21484 18.2617L6.38672 19.5508L5.80078 21.1914C5.48828 21.9727 5.09766 22.7734 4.62891 23.5938C5.80078 23.2031 6.91406 22.6172 7.96875 21.8359L9.14062 21.0742L10.4883 21.4844C11.9727 21.9531 13.4961 22.1875 15.0586 22.1875Z" fill="white"/>
</svg>
