<svg width="31" height="27" viewBox="0 0 31 27" fill="none" xmlns="http://www.w3.org/2000/svg">
<path d="M4.45312 4.19922C7.38281 1.81641 10.918 0.625 15.0586 0.625C19.1992 0.625 22.7344 1.81641 25.6641 4.19922C28.5938 6.58203 30.0586 9.45312 30.0586 12.8125C30.0586 16.1719 28.5938 19.043 25.6641 21.4258C22.7344 23.8086 19.1992 25 15.0586 25C12.8711 25 10.7812 24.6289 8.78906 23.8867C6.25 25.8789 3.49609 26.875 0.527344 26.875C0.449219 26.875 0.371094 26.8359 0.292969 26.7578C0.214844 26.7188 0.15625 26.6602 0.117188 26.582C0.0390625 26.3867 0.0585938 26.2109 0.175781 26.0547C0.332031 25.9375 0.566406 25.6641 0.878906 25.2344C1.23047 24.8438 1.67969 24.1797 2.22656 23.2422C2.77344 22.2656 3.16406 21.3477 3.39844 20.4883C1.17188 18.2617 0.0585938 15.7031 0.0585938 12.8125C0.0585938 9.45312 1.52344 6.58203 4.45312 4.19922Z" fill="white"/>
</svg>
