<svg width="32" height="32" viewBox="0 0 32 32" fill="none" xmlns="http://www.w3.org/2000/svg">
<circle cx="16" cy="16" r="15.5" stroke="white"/>
<path d="M21.1025 12.1953C21.1201 12.2656 21.1289 12.3799 21.1289 12.5381C21.1289 13.8037 20.8213 15.0254 20.2061 16.2031C19.5732 17.4512 18.6855 18.4443 17.543 19.1826C16.2949 20.0088 14.8623 20.4219 13.2451 20.4219C11.6982 20.4219 10.2832 20.0088 9 19.1826C9.19336 19.2002 9.41309 19.209 9.65918 19.209C10.9424 19.209 12.0938 18.8135 13.1133 18.0225C12.498 18.0225 11.9531 17.8467 11.4785 17.4951C11.0215 17.126 10.7051 16.6689 10.5293 16.124C10.7051 16.1416 10.8721 16.1504 11.0303 16.1504C11.2764 16.1504 11.5225 16.124 11.7686 16.0713C11.1357 15.9307 10.6084 15.6055 10.1865 15.0957C9.76465 14.5859 9.55371 14.0059 9.55371 13.3555V13.3027C9.94043 13.5312 10.3535 13.6543 10.793 13.6719C10.4238 13.4082 10.125 13.0742 9.89648 12.6699C9.66797 12.2656 9.55371 11.8262 9.55371 11.3516C9.55371 10.8594 9.68555 10.3936 9.94922 9.9541C10.6348 10.8154 11.4697 11.501 12.4541 12.0107C13.4561 12.5205 14.5195 12.8018 15.6445 12.8545C15.6094 12.6436 15.5918 12.4326 15.5918 12.2217C15.5918 11.7295 15.7148 11.2725 15.9609 10.8506C16.207 10.4111 16.541 10.0684 16.9629 9.82227C17.3848 9.57617 17.8418 9.45312 18.334 9.45312C18.7383 9.45312 19.1074 9.53223 19.4414 9.69043C19.793 9.84863 20.1006 10.0596 20.3643 10.3232C20.9971 10.2002 21.5859 9.98047 22.1309 9.66406C21.9199 10.3145 21.5156 10.8242 20.918 11.1934C21.4453 11.123 21.9727 10.9736 22.5 10.7451C22.1133 11.3076 21.6475 11.791 21.1025 12.1953Z" fill="white"/>
</svg>
